# xmcd
#
# Track frame offsets:
#	150
#	12640
#	24572
#	39515
#	49795
#	61145
#	71490
#	84660
#	99237
#	121077
#	140125
#	161307
#	179347
#	201352
#	219167
#	244137
#	265372
#	283222
#	302185
#	320187
#	338840
#
# Disc length: 4754 seconds
#
# Revision: 12
# Processed by: cddbd v1.5.2PL0 Copyright (c) Steve Scherf et al.
# Submitted via: audiograbber 1.83.01
#
DISCID=39129015
DTITLE=Various Artist - Jazz Moods
DYEAR=1994
DGENRE=Jazz
TTITLE0=Nat King Cole - Let There Be Love
TTITLE1=Harry Connick Jr. - It Had To Be You
TTITLE2=Peggy Lee - Fever
TTITLE3=Dinah Washington - Call Me Irresponsible
TTITLE4=Aretha Franklin - Love For Sale
TTITLE5=Louis Armstrong - What A Wonderful World
TTITLE6=Billie Holiday - That Ole Devil Called Love
TTITLE7=Sarah Vaughan - Summertime
TTITLE8=Dave Brubeck - Take Five
TTITLE9=US3 ft. Rashaan - Cantaloop (Instrumental)
TTITLE10=Miles Davis - Miles
TTITLE11=Ronny Jordan - So What
TTITLE12=Weather Report - Birdland
TTITLE13=Spyro Gyra - Morning Dance
TTITLE14=George Benson - Breezin
TTITLE15=Grover Washington Jr. - Let It Flow (For "Dr. J")
TTITLE16=Average White Band - Pick Up The Pieces
TTITLE17=Quincy Jones - Ai No Corrida
TTITLE18=Al Jarreau - Easy
TTITLE19=Incognito - Don't You Worry 'Bout A Thing (Edit)
TTITLE20=Crusaders with guest artist Randy Crawford - Street Life
EXTD=
EXTT0=
EXTT1=
EXTT2=
EXTT3=
EXTT4=
EXTT5=
EXTT6=
EXTT7=
EXTT8=
EXTT9=
EXTT10=
EXTT11=
EXTT12=
EXTT13=
EXTT14=
EXTT15=
EXTT16=
EXTT17=
EXTT18=
EXTT19=
EXTT20=
PLAYORDER=
